<svg xmlns="http://www.w3.org/2000/svg" version="1.1" xmlns:xlink="http://www.w3.org/1999/xlink" xmlns:svgjs="http://svgjs.com/svgjs" width="1440" height="560" preserveAspectRatio="none" viewBox="0 0 1440 560"><g mask="url(&quot;#SvgjsMask1005&quot;)" fill="none"><rect width="1440" height="560" x="0" y="0" fill="#0e2a47"></rect><path d="M746.68 629.65C888.21 580.09 919.47 166.62 1121.14 161.08 1322.81 155.54 1393.07 325.29 1495.6 329.08" stroke="rgba(51,121,194,0.58)" stroke-width="2"></path><path d="M200.51 588.18C386.92 585.91 537.06 381.34 914.93 374.45 1292.81 367.56 1437.59 99.39 1629.36 94.45" stroke="rgba(51,121,194,0.58)" stroke-width="2"></path><path d="M217.39 655.36C349.61 635.7 416.08 324.63 635.06 321.52 854.04 318.41 843.9 391.52 1052.73 391.52 1261.56 391.52 1364.53 321.76 1470.4 321.52" stroke="rgba(51,121,194,0.58)" stroke-width="2"></path><path d="M518.56 656.65C638.6 631.55 605.98 320.26 875.39 320.05 1144.79 319.84 1402.88 530.6 1589.04 532.85" stroke="rgba(51,121,194,0.58)" stroke-width="2"></path><path d="M822.81 601.87C927.45 565.66 852.53 280.5 1100.51 256.83 1348.5 233.16 1508.24 58.32 1655.92 55.23" stroke="rgba(51,121,194,0.58)" stroke-width="2"></path></g><defs><mask id="SvgjsMask1005"><rect width="1440" height="560" fill="#ffffff"></rect></mask></defs></svg>